<ffprobe>
    <packets_and_frames>
<packet codec_type="audio" stream_index="1" pts="239616" pts_time="4.992000" dts="239616" dts_time="4.992000" duration="1008" duration_time="0.021000" size="668" pos="1084636" flags="K__"/>
        <frame media_type="audio" stream_index="1" key_frame="1" pts="239616" pts_time="4.992000" pkt_dts="239616" pkt_dts_time="4.992000" best_effort_timestamp="239616" best_effort_timestamp_time="4.992000" pkt_duration="1008" pkt_duration_time="0.021000" duration="1008" duration_time="0.021000" pkt_pos="1084636" pkt_size="668" sample_fmt="fltp" nb_samples="1024" channels="6" channel_layout="5.1"/>
        <frame media_type="video" stream_index="0" key_frame="0" pts="62976" pts_time="4.920000" best_effort_timestamp="62976" best_effort_timestamp_time="4.920000" pkt_duration="512" pkt_duration_time="0.040000" duration="512" duration_time="0.040000" pkt_pos="1063904" pkt_size="4374" width="1280" height="720" crop_top="0" crop_bottom="0" crop_left="0" crop_right="0" pix_fmt="yuv420p" sample_aspect_ratio="1:1" pict_type="P" coded_picture_number="120" display_picture_number="0" interlaced_frame="0" top_field_first="0" repeat_pict="0" chroma_location="left"/>
        <frame media_type="video" stream_index="0" key_frame="0" pts="63488" pts_time="4.960000" best_effort_timestamp="63488" best_effort_timestamp_time="4.960000" pkt_duration="512" pkt_duration_time="0.040000" duration="512" duration_time="0.040000" pkt_pos="1078820" pkt_size="1053" width="1280" height="720" crop_top="0" crop_bottom="0" crop_left="0" crop_right="0" pix_fmt="yuv420p" sample_aspect_ratio="1:1" pict_type="P" coded_picture_number="124" display_picture_number="0" interlaced_frame="0" top_field_first="0" repeat_pict="0" chroma_location="left"/>
    </packets_and_frames>
</ffprobe>
